<svg width="157" height="157" viewBox="0 0 157 157" fill="none" xmlns="http://www.w3.org/2000/svg">
<path d="M136.329 30.1571C132.988 26.8143 129.021 24.1626 124.654 22.3534C120.288 20.5442 115.608 19.613 110.882 19.613C106.156 19.613 101.476 20.5442 97.1094 22.3534C92.7431 24.1626 88.7761 26.8143 85.4349 30.1571L78.5007 37.0912L71.5665 30.1571C64.8175 23.4081 55.664 19.6165 46.1194 19.6165C36.5749 19.6165 27.4213 23.4081 20.6724 30.1571C13.9234 36.906 10.1318 46.0596 10.1318 55.6041C10.1318 65.1487 13.9234 74.3022 20.6724 81.0512L27.6065 87.9854L78.5007 138.88L129.395 87.9854L136.329 81.0512C139.672 77.71 142.323 73.743 144.133 69.3767C145.942 65.0104 146.873 60.3304 146.873 55.6041C146.873 50.8779 145.942 46.1979 144.133 41.8316C142.323 37.4653 139.672 33.4983 136.329 30.1571Z" stroke="#3D60B9" stroke-width="13.0833" stroke-linecap="round" stroke-linejoin="round"/>
</svg>
