<svg width="150" height="61" viewBox="0 0 150 61" fill="none" xmlns="http://www.w3.org/2000/svg">
<path d="M132.476 19.7776H131.204L132.052 15.5357C131.628 13.4148 129.981 10.0976 134.173 4.33314C136.888 0.600377 144.777 0.0913663 148.171 0.515544C147.322 1.3639 145.626 5.3555 143.929 11.294C142.572 16.0448 136.859 16.6669 134.173 16.3841C135.445 8.15069 138.697 6.62804 140.536 4.50715C134.597 7.72651 132.9 15.3944 132.476 19.7776Z" fill="#51AF3F"/>
<path d="M126.062 4.23206C128.273 5.90669 130.11 10.9053 130.779 13.316C125.689 13.6648 123.144 11.544 122.296 8.57471C121.617 6.19931 119.609 1.36369 118.902 0.0911486C126.707 -0.587536 130.355 2.63609 131.628 6.02957C130.949 6.36891 130.497 9.14021 130.355 10.2713C129.733 7.78122 127.516 5.28311 126.062 4.23206Z" fill="#51AF3F"/>
<path d="M2.78205 50.3171V18.3079H15.4107C17.8384 18.3079 19.9067 18.7716 21.6156 19.6989C23.3244 20.6159 24.6269 21.8923 25.5229 23.5281C26.4295 25.1536 26.8827 27.0292 26.8827 29.1548C26.8827 31.2804 26.4242 33.1559 25.5073 34.7814C24.5904 36.4068 23.2619 37.6728 21.5218 38.5793C19.7921 39.4858 17.6978 39.9391 15.2387 39.9391H7.18956V34.5157H14.1447C15.4471 34.5157 16.5204 34.2916 17.3644 33.8436C18.2188 33.3851 18.8544 32.7548 19.2712 31.9524C19.6984 31.1397 19.912 30.2071 19.912 29.1548C19.912 28.092 19.6984 27.1646 19.2712 26.3727C18.8544 25.5704 18.2188 24.9504 17.3644 24.5128C16.5099 24.0648 15.4263 23.8407 14.1134 23.8407H9.54961V50.3171H2.78205ZM37.8116 18.3079V50.3171H31.1535V18.3079H37.8116ZM49.9909 50.7703C48.4592 50.7703 47.0942 50.5046 45.896 49.9732C44.6977 49.4314 43.7495 48.6343 43.0514 47.5819C42.3637 46.5191 42.0199 45.1958 42.0199 43.612C42.0199 42.2783 42.2647 41.1582 42.7544 40.2517C43.2442 39.3452 43.911 38.6158 44.755 38.0636C45.599 37.5113 46.5576 37.0945 47.6308 36.8132C48.7145 36.5319 49.8502 36.3339 51.0381 36.2193C52.4343 36.0734 53.5596 35.938 54.414 35.8129C55.2685 35.6775 55.8884 35.4795 56.2739 35.219C56.6595 34.9585 56.8522 34.573 56.8522 34.0624V33.9686C56.8522 32.9788 56.5396 32.2129 55.9145 31.6711C55.2997 31.1293 54.4245 30.8584 53.2887 30.8584C52.0905 30.8584 51.1371 31.1241 50.4285 31.6555C49.72 32.1765 49.2511 32.8329 49.0219 33.6248L42.8639 33.1246C43.1764 31.6659 43.7912 30.4051 44.7081 29.3423C45.6251 28.2691 46.8077 27.4459 48.256 26.8729C49.7148 26.2894 51.4028 25.9976 53.32 25.9976C54.6537 25.9976 55.9301 26.1539 57.1492 26.4665C58.3787 26.7791 59.4676 27.2636 60.4158 27.92C61.3744 28.5765 62.1298 29.4205 62.682 30.452C63.2343 31.4731 63.5104 32.6974 63.5104 34.1249V50.3171H57.1961V46.988H57.0085C56.623 47.7382 56.1072 48.3999 55.4612 48.9729C54.8152 49.5356 54.0389 49.9784 53.1324 50.3014C52.2259 50.614 51.1787 50.7703 49.9909 50.7703ZM51.8977 46.1753C52.8771 46.1753 53.742 45.9825 54.4922 45.597C55.2424 45.201 55.8311 44.6696 56.2583 44.0028C56.6855 43.3359 56.8991 42.5805 56.8991 41.7365V39.1889C56.6907 39.3243 56.4042 39.4494 56.0395 39.564C55.6852 39.6682 55.2841 39.7672 54.836 39.861C54.388 39.9443 53.9399 40.0225 53.4919 40.0954C53.0439 40.1579 52.6375 40.2152 52.2728 40.2673C51.4913 40.3819 50.8088 40.5643 50.2253 40.8144C49.6418 41.0644 49.1886 41.4031 48.8656 41.8303C48.5426 42.2471 48.3811 42.768 48.3811 43.3932C48.3811 44.2997 48.7093 44.9926 49.3657 45.4719C50.0326 45.9408 50.8766 46.1753 51.8977 46.1753ZM75.3341 36.4381V50.3171H68.6759V26.3102H75.0215V30.5458H75.3028C75.8342 29.1495 76.7251 28.0451 77.9755 27.2323C79.2258 26.4092 80.7419 25.9976 82.5237 25.9976C84.1908 25.9976 85.6443 26.3623 86.8843 27.0917C88.1242 27.821 89.088 28.863 89.7757 30.2176C90.4634 31.5617 90.8073 33.1663 90.8073 35.0314V50.3171H84.1491V36.2193C84.1595 34.7501 83.7844 33.604 83.0238 32.7808C82.2632 31.9472 81.216 31.5304 79.8823 31.5304C78.9862 31.5304 78.1943 31.7232 77.5066 32.1087C76.8293 32.4943 76.2979 33.0569 75.9124 33.7967C75.5373 34.5261 75.3445 35.4066 75.3341 36.4381ZM108.824 26.3102V31.3116H94.3669V26.3102H108.824ZM97.6491 20.5585H104.307V42.94C104.307 43.5547 104.401 44.034 104.589 44.3779C104.776 44.7113 105.037 44.9457 105.37 45.0812C105.714 45.2167 106.11 45.2844 106.558 45.2844C106.87 45.2844 107.183 45.2583 107.496 45.2062C107.808 45.1437 108.048 45.0968 108.215 45.0656L109.262 50.0201C108.928 50.1243 108.459 50.2441 107.855 50.3796C107.251 50.5255 106.516 50.614 105.651 50.6453C104.047 50.7078 102.64 50.4942 101.431 50.0045C100.233 49.5148 99.3006 48.7541 98.6337 47.7226C97.9669 46.691 97.6387 45.3886 97.6491 43.8152V20.5585ZM123.473 50.3171V18.3079H136.289C138.644 18.3079 140.608 18.657 142.181 19.3551C143.755 20.0532 144.937 21.0222 145.729 22.2622C146.521 23.4917 146.917 24.9088 146.917 26.5134C146.917 27.7637 146.667 28.863 146.167 29.8112C145.667 30.749 144.979 31.52 144.104 32.1244C143.239 32.7183 142.249 33.1403 141.134 33.3903V33.7029C142.353 33.755 143.494 34.0989 144.557 34.7345C145.63 35.3701 146.5 36.261 147.167 37.4071C147.834 38.5429 148.167 39.8974 148.167 41.4708C148.167 43.1692 147.745 44.6853 146.901 46.019C146.068 47.3423 144.833 48.3894 143.197 49.1605C141.561 49.9316 139.545 50.3171 137.149 50.3171H123.473ZM130.24 44.7842H135.758C137.644 44.7842 139.019 44.4248 139.884 43.7058C140.749 42.9764 141.181 42.0074 141.181 40.7987C141.181 39.9131 140.968 39.1316 140.54 38.4543C140.113 37.777 139.504 37.2456 138.712 36.8601C137.93 36.4746 136.998 36.2818 135.914 36.2818H130.24V44.7842ZM130.24 31.7024H135.258C136.185 31.7024 137.008 31.5409 137.727 31.2179C138.456 30.8844 139.029 30.4155 139.446 29.8112C139.873 29.2069 140.087 28.4827 140.087 27.6387C140.087 26.4821 139.675 25.5496 138.852 24.841C138.04 24.1325 136.883 23.7782 135.383 23.7782H130.24V31.7024Z" fill="#3D60B9"/>
</svg>
