<svg width="157" height="157" viewBox="0 0 157 157" fill="none" xmlns="http://www.w3.org/2000/svg">
<path d="M104.667 19.625H6.5415V104.667H104.667V19.625Z" stroke="#3D60B9" stroke-width="13.0833" stroke-linecap="round" stroke-linejoin="round"/>
<path d="M104.667 52.3334H130.833L150.458 71.9584V104.667H104.667V52.3334Z" stroke="#3D60B9" stroke-width="13.0833" stroke-linecap="round" stroke-linejoin="round"/>
<path d="M35.9792 137.375C45.0113 137.375 52.3333 130.053 52.3333 121.021C52.3333 111.989 45.0113 104.667 35.9792 104.667C26.947 104.667 19.625 111.989 19.625 121.021C19.625 130.053 26.947 137.375 35.9792 137.375Z" stroke="#3D60B9" stroke-width="13.0833" stroke-linecap="round" stroke-linejoin="round"/>
<path d="M121.021 137.375C130.053 137.375 137.375 130.053 137.375 121.021C137.375 111.989 130.053 104.667 121.021 104.667C111.989 104.667 104.667 111.989 104.667 121.021C104.667 130.053 111.989 137.375 121.021 137.375Z" stroke="#3D60B9" stroke-width="13.0833" stroke-linecap="round" stroke-linejoin="round"/>
</svg>
